<?xml version="1.0" standalone="no"?>
<!DOCTYPE svg PUBLIC "-//W3C//DTD SVG 20010904//EN"
 "http://www.w3.org/TR/2001/REC-SVG-20010904/DTD/svg10.dtd">
<svg version="1.0" xmlns="http://www.w3.org/2000/svg"
 width="900.000000pt" height="200.000000pt" viewBox="0 0 900.000000 200.000000"
 preserveAspectRatio="xMidYMid meet">

<g transform="translate(0.000000,200.000000) scale(0.100000,-0.100000)"
fill="#000000" stroke="none">
<path d="M442 1213 c-18 -9 -45 -32 -60 -51 l-27 -35 0 -203 c0 -225 2 -232
75 -281 l33 -23 4037 0 4037 0 33 22 c73 50 75 56 75 283 0 224 -1 229 -69
279 l-27 21 -4037 2 c-3723 2 -4040 1 -4070 -14z m1158 -283 c0 -119 -2 -130
-18 -130 -10 0 -23 5 -29 11 -8 8 -13 8 -17 0 -12 -19 -71 -13 -91 9 -25 28
-26 107 -2 143 13 20 26 27 50 27 18 0 38 -5 45 -12 9 -9 12 -2 12 35 0 43 2
47 25 47 l25 0 0 -130z m430 0 c0 -119 -2 -130 -18 -130 -10 0 -23 5 -29 11
-8 8 -13 8 -17 0 -12 -19 -71 -13 -92 10 -26 29 -26 119 0 148 21 23 75 28 94
9 9 -9 12 -2 12 35 0 43 2 47 25 47 l25 0 0 -130z m790 90 c0 -38 1 -40 25
-34 38 9 70 -3 83 -31 22 -49 11 -125 -22 -147 -17 -12 -71 -9 -84 4 -9 9 -12
9 -12 0 0 -7 -11 -12 -25 -12 l-25 0 0 130 0 130 30 0 c28 0 30 -2 30 -40z
m2500 -90 l0 -130 -25 0 c-14 0 -25 5 -25 12 0 9 -3 9 -12 0 -7 -7 -29 -12
-49 -12 -47 0 -69 27 -69 87 0 79 32 113 95 101 23 -5 25 -2 25 33 0 37 2 39
30 39 l30 0 0 -130z m1550 0 c0 -121 -1 -130 -19 -130 -11 0 -21 6 -24 13 -4
10 -7 10 -18 0 -23 -23 -77 -16 -95 12 -21 32 -22 107 0 139 18 28 72 36 94
14 9 -9 12 -2 12 35 0 43 2 47 25 47 l25 0 0 -130z m-6188 10 c21 -58 40 -113
43 -122 5 -15 1 -18 -24 -18 -25 0 -30 5 -36 30 -6 28 -10 30 -51 30 -41 0
-46 -3 -55 -30 -9 -24 -17 -30 -40 -30 l-28 0 34 98 c57 164 51 154 87 150 32
-3 34 -6 70 -108z m223 13 l30 -92 29 94 c26 85 32 95 53 95 31 0 29 -13 -15
-140 -35 -100 -38 -105 -67 -108 -30 -3 -30 -2 -69 110 -21 62 -41 119 -44
126 -3 10 3 13 24 10 27 -3 31 -9 59 -95z m3174 -19 c23 -63 41 -120 41 -125
0 -5 -11 -9 -26 -9 -19 0 -28 7 -35 30 -10 27 -15 30 -54 30 -40 0 -44 -2 -50
-30 -5 -25 -11 -30 -36 -30 -16 0 -29 3 -29 7 0 3 19 59 41 125 l42 118 32 0
c33 0 33 0 74 -116z m1911 91 c0 -23 -4 -25 -45 -25 -43 0 -45 -1 -45 -30 0
-29 2 -30 45 -30 38 0 45 -3 45 -20 0 -17 -7 -20 -45 -20 l-45 0 0 -50 c0 -47
-2 -50 -25 -50 l-25 0 0 125 0 125 70 0 c68 0 70 -1 70 -25z m1401 15 c15 -9
17 -15 9 -30 -9 -16 -15 -17 -40 -8 -41 14 -75 -9 -84 -55 -13 -70 22 -113 85
-103 38 6 40 5 37 -16 -3 -20 -10 -23 -55 -26 -29 -2 -61 2 -73 8 -34 18 -53
67 -48 128 4 47 10 60 37 84 34 30 93 38 132 18z m-6182 -67 c12 -10 24 -35
28 -55 l6 -38 -62 0 c-54 0 -62 -2 -59 -17 3 -15 14 -18 56 -18 48 1 53 -1 50
-20 -2 -16 -12 -21 -47 -23 -25 -2 -55 -1 -68 2 -26 7 -53 53 -53 91 0 31 24
81 42 88 29 12 87 6 107 -10z m111 0 c0 -15 1 -15 18 0 29 27 62 22 62 -8 0
-19 -5 -25 -23 -25 -36 0 -47 -19 -47 -82 0 -55 -1 -58 -25 -58 -25 0 -25 0
-25 95 0 88 1 95 20 95 12 0 20 -7 20 -17z m472 0 c14 -13 18 -31 18 -95 0
-71 -2 -78 -20 -78 -11 0 -20 5 -20 10 0 7 -6 7 -19 0 -29 -15 -77 -12 -95 6
-39 39 -6 92 64 101 53 7 47 28 -8 27 -43 -1 -66 21 -40 38 23 14 100 9 120
-9z m427 0 c12 -10 24 -35 28 -55 l6 -38 -62 0 c-54 0 -62 -2 -59 -17 3 -15
14 -18 56 -18 48 1 53 -1 50 -20 -2 -16 -12 -21 -47 -23 -25 -2 -55 -1 -68 2
-26 7 -53 53 -53 91 0 31 24 81 42 88 29 12 87 6 107 -10z m278 9 c23 -15 -4
-37 -42 -34 -37 4 -48 -12 -16 -23 34 -10 71 -46 71 -67 0 -39 -28 -58 -87
-58 -48 0 -53 2 -53 23 0 20 4 22 45 19 57 -5 58 9 3 40 -49 27 -64 72 -32 95
19 14 92 17 111 5z m198 -17 c33 -32 35 -100 4 -139 -17 -21 -29 -26 -65 -26
-63 0 -94 32 -94 95 0 62 32 95 90 95 30 0 47 -6 65 -25z m333 9 c8 -14 10
-14 21 0 8 9 24 16 38 16 20 0 24 -4 21 -22 -2 -13 -11 -24 -23 -26 -37 -7
-45 -23 -45 -83 0 -59 0 -59 -30 -59 l-30 0 0 95 c0 88 2 95 20 95 10 0 23 -7
28 -16z m242 6 c20 -11 45 -74 35 -90 -3 -5 -33 -10 -66 -10 -57 0 -59 -1 -49
-21 10 -17 19 -20 58 -18 41 3 47 1 47 -16 0 -17 -8 -20 -57 -23 -51 -3 -61 0
-84 23 -23 23 -26 32 -21 78 3 37 11 56 27 69 24 20 80 24 110 8z m314 -21
c29 -35 33 -76 11 -118 -17 -33 -33 -41 -84 -41 -53 0 -86 37 -86 95 0 61 33
95 91 95 35 0 47 -5 68 -31z m184 23 c7 -5 10 -16 7 -24 -5 -12 -16 -15 -46
-11 -52 7 -49 -8 6 -35 41 -20 45 -25 45 -57 0 -43 -20 -55 -89 -55 -47 0 -51
2 -51 24 0 22 3 23 45 18 57 -6 58 9 3 40 -48 26 -61 63 -33 92 17 17 90 22
113 8z m432 -4 c0 -9 3 -9 12 0 19 19 73 14 94 -9 14 -15 19 -36 19 -74 0 -38
-5 -59 -19 -74 -21 -24 -74 -28 -95 -8 -10 10 -12 2 -9 -41 3 -51 2 -52 -24
-52 l-28 0 0 135 0 135 25 0 c14 0 25 -5 25 -12z m216 -3 c5 -13 8 -13 21 0 8
8 25 15 37 15 19 0 22 -4 18 -25 -3 -18 -11 -25 -28 -25 -32 0 -48 -40 -40
-97 6 -42 5 -43 -24 -43 l-30 0 0 95 c0 89 1 95 20 95 11 0 23 -7 26 -15z
m259 -10 c33 -32 35 -100 4 -139 -17 -21 -29 -26 -65 -26 -63 0 -94 32 -94 95
0 62 32 95 90 95 30 0 47 -6 65 -25z m119 -43 l20 -64 21 64 c19 54 25 63 48
66 15 2 27 0 26 -5 0 -4 -15 -46 -32 -93 -31 -80 -34 -85 -62 -85 -27 0 -31 5
-62 84 -18 47 -33 89 -33 94 0 4 12 7 27 5 24 -3 30 -11 47 -66z m286 48 c16
-16 20 -33 20 -95 0 -68 -2 -75 -19 -75 -11 0 -23 5 -27 11 -4 8 -9 8 -17 0
-15 -15 -80 -14 -95 1 -7 7 -12 27 -12 46 0 28 5 35 35 48 19 7 44 14 55 14
12 0 20 7 20 16 0 14 -7 16 -39 11 -30 -4 -41 -1 -46 11 -8 21 12 32 63 32 29
0 48 -6 62 -20z m435 -5 c19 -18 25 -35 25 -70 0 -62 -32 -95 -90 -95 -58 0
-90 33 -90 95 0 62 32 95 90 95 30 0 47 -6 65 -25z m189 16 c15 -24 -6 -39
-47 -34 l-42 4 24 -20 c13 -12 29 -21 37 -21 7 0 21 -11 30 -25 13 -21 15 -31
6 -50 -13 -28 -42 -38 -98 -33 -31 2 -40 7 -42 24 -3 20 0 21 42 17 58 -7 60
9 6 37 -79 40 -59 110 31 110 26 0 50 -4 53 -9z m480 -22 c29 -35 33 -76 11
-118 -17 -33 -33 -41 -84 -41 -53 0 -86 37 -86 95 0 61 33 95 91 95 35 0 47
-5 68 -31z m110 15 c5 -14 7 -14 22 0 25 25 54 20 54 -9 0 -20 -5 -25 -25 -25
-32 0 -45 -26 -45 -89 0 -48 -2 -51 -25 -51 -25 0 -25 0 -25 95 0 87 2 95 19
95 10 0 22 -7 25 -16z m251 2 c14 -10 19 -30 23 -95 4 -75 3 -81 -15 -81 -10
0 -24 5 -30 11 -8 8 -13 8 -17 0 -11 -16 -82 -13 -96 4 -17 20 -16 64 2 82 9
8 34 17 57 20 56 8 58 36 1 32 -44 -4 -55 3 -47 26 8 19 95 21 122 1z m519 -2
c12 -11 16 -36 16 -95 0 -72 -2 -79 -20 -79 -11 0 -20 5 -20 10 0 7 -6 7 -19
0 -59 -31 -127 12 -103 66 12 26 48 44 88 44 15 0 24 6 24 16 0 12 -9 15 -41
13 -42 -3 -71 17 -46 33 22 14 105 9 121 -8z m438 -56 c3 -63 6 -73 22 -76 30
-6 46 26 46 90 0 55 1 58 25 58 25 0 25 0 25 -95 0 -87 -2 -95 -19 -95 -11 0
-21 6 -24 13 -4 10 -7 10 -18 0 -17 -16 -81 -17 -97 -1 -7 7 -12 44 -12 95 0
81 0 83 25 83 23 0 24 -3 27 -72z m216 56 c8 -14 10 -14 21 0 8 9 24 16 38 16
20 0 24 -4 21 -22 -2 -13 -11 -24 -23 -26 -37 -7 -45 -23 -45 -83 0 -59 0 -59
-30 -59 l-30 0 0 95 c0 88 2 95 20 95 10 0 23 -7 28 -16z m164 -49 l23 -65 21
62 c18 55 24 63 48 66 32 4 32 9 -13 -108 -25 -67 -31 -75 -57 -78 -28 -2 -30
1 -62 85 -18 48 -32 91 -32 96 0 4 11 7 24 7 21 0 28 -9 48 -65z m283 51 c16
-12 20 -29 23 -95 4 -74 3 -81 -15 -81 -10 0 -24 5 -30 11 -8 8 -13 8 -17 0
-10 -15 -79 -14 -94 1 -17 17 -15 73 3 88 8 6 32 14 55 17 56 8 56 36 0 32
-44 -4 -55 3 -47 26 8 20 95 21 122 1z m122 -142 c3 -8 -2 -23 -11 -32 -15
-15 -17 -15 -32 0 -21 21 -11 48 16 48 11 0 23 -7 27 -16z m100 0 c3 -8 -2
-23 -11 -32 -15 -15 -17 -15 -32 0 -21 21 -11 48 16 48 11 0 23 -7 27 -16z
m100 0 c7 -20 -22 -45 -43 -37 -14 5 -19 35 -7 46 12 13 44 7 50 -9z"/>
<path d="M1492 938 c-14 -14 -16 -67 -3 -86 4 -8 19 -12 32 -10 20 2 25 10 27
41 5 55 -26 85 -56 55z"/>
<path d="M1917 943 c-4 -3 -7 -26 -7 -50 0 -47 19 -65 49 -46 20 12 27 69 10
89 -12 15 -41 19 -52 7z"/>
<path d="M2824 936 c-3 -8 -4 -31 -2 -52 3 -34 6 -39 28 -39 32 0 49 42 32 80
-13 27 -49 34 -58 11z"/>
<path d="M5200 931 c-24 -45 -3 -97 36 -89 24 4 37 49 25 81 -12 32 -45 36
-61 8z"/>
<path d="M6761 936 c-17 -20 -10 -77 10 -89 9 -6 24 -7 33 -4 22 9 23 92 0
101 -23 9 -30 8 -43 -8z"/>
<path d="M597 963 c-3 -16 -9 -36 -12 -45 -6 -15 -2 -18 24 -18 35 0 35 -1 19
51 -13 46 -23 50 -31 12z"/>
<path d="M3992 962 c-17 -55 -15 -62 14 -62 25 0 26 2 19 38 -11 61 -20 67
-33 24z"/>
<path d="M1127 943 c-15 -15 -5 -23 28 -23 26 0 33 3 29 15 -6 15 -45 21 -57
8z"/>
<path d="M1718 883 c-10 -2 -18 -13 -18 -24 0 -24 45 -27 54 -3 13 34 6 38
-36 27z"/>
<path d="M2137 943 c-15 -15 -5 -23 28 -23 26 0 33 3 29 15 -6 15 -45 21 -57
8z"/>
<path d="M2598 925 c-23 -51 20 -106 57 -75 18 15 20 71 3 88 -20 20 -48 14
-60 -13z"/>
<path d="M3197 943 c-15 -15 -5 -23 28 -23 26 0 33 3 29 15 -6 15 -45 21 -57
8z"/>
<path d="M3492 938 c-14 -14 -16 -66 -3 -86 4 -8 19 -12 32 -10 22 3 24 8 24
53 0 42 -3 50 -20 53 -11 1 -26 -3 -33 -10z"/>
<path d="M4210 924 c-15 -39 0 -79 30 -79 44 0 46 97 2 103 -16 3 -25 -4 -32
-24z"/>
<path d="M4578 925 c-17 -38 0 -80 32 -80 18 0 27 8 34 27 13 36 -6 78 -34 78
-12 0 -25 -10 -32 -25z"/>
<path d="M4995 877 c-10 -8 -15 -19 -11 -25 11 -18 44 -14 55 7 17 31 -10 42
-44 18z"/>
<path d="M5418 925 c-17 -38 0 -80 32 -80 18 0 27 8 34 27 13 36 -6 78 -34 78
-12 0 -25 -10 -32 -25z"/>
<path d="M6092 938 c-14 -14 -16 -66 -3 -86 4 -8 19 -12 32 -10 22 3 24 8 24
53 0 42 -3 50 -20 53 -11 1 -26 -3 -33 -10z"/>
<path d="M6468 879 c-29 -16 -22 -41 10 -37 19 2 28 9 30 26 4 24 -11 28 -40
11z"/>
<path d="M6988 879 c-29 -16 -22 -41 10 -37 19 2 28 9 30 26 4 24 -11 28 -40
11z"/>
<path d="M8088 879 c-29 -16 -22 -41 10 -37 19 2 28 9 30 26 4 24 -11 28 -40
11z"/>
</g>
</svg>
