<?xml version="1.0" standalone="no"?>
<!DOCTYPE svg PUBLIC "-//W3C//DTD SVG 20010904//EN"
 "http://www.w3.org/TR/2001/REC-SVG-20010904/DTD/svg10.dtd">
<svg version="1.0" xmlns="http://www.w3.org/2000/svg"
 width="1000.000000pt" height="100.000000pt" viewBox="0 0 1000.000000 100.000000"
 preserveAspectRatio="xMidYMid meet">

<g transform="translate(0.000000,100.000000) scale(0.100000,-0.100000)"
fill="#000000" stroke="none">
<path d="M172 843 c-18 -9 -45 -32 -60 -51 l-27 -35 0 -252 0 -252 27 -35 c15
-19 42 -43 61 -52 32 -15 406 -16 4832 -16 4099 0 4800 2 4823 14 37 19 68 55
87 98 12 30 15 80 15 245 0 181 -3 213 -19 248 -21 46 -54 79 -94 94 -20 8
-1450 11 -4820 11 -4416 0 -4795 -2 -4825 -17z"/>
</g>
</svg>
