<?xml version="1.0" standalone="no"?>
<!DOCTYPE svg PUBLIC "-//W3C//DTD SVG 20010904//EN"
 "http://www.w3.org/TR/2001/REC-SVG-20010904/DTD/svg10.dtd">
<svg version="1.0" xmlns="http://www.w3.org/2000/svg"
 width="1000.000000pt" height="100.000000pt" viewBox="0 0 1000.000000 100.000000"
 preserveAspectRatio="xMidYMid meet">

<g transform="translate(0.000000,100.000000) scale(0.100000,-0.100000)"
fill="#000000" stroke="none">
<path d="M172 843 c-18 -9 -45 -32 -60 -51 l-27 -35 0 -252 0 -252 27 -35 c15
-19 42 -43 61 -52 32 -15 406 -16 4832 -16 4099 0 4800 2 4823 14 37 19 68 55
87 98 12 30 15 80 15 245 0 181 -3 213 -19 248 -21 46 -54 79 -94 94 -20 8
-1450 11 -4820 11 -4416 0 -4795 -2 -4825 -17z m1358 -333 l0 -160 -30 0 c-21
0 -30 5 -30 17 0 15 -2 15 -19 -1 -13 -12 -32 -16 -57 -14 -73 6 -108 106 -66
188 21 43 60 59 102 43 l30 -11 0 49 0 49 35 0 35 0 0 -160z m510 0 l0 -160
-25 0 c-14 0 -28 7 -32 15 -5 14 -7 14 -23 0 -28 -26 -89 -16 -114 18 -25 34
-29 119 -7 160 19 36 65 54 102 40 l29 -11 0 49 0 49 35 0 35 0 0 -160z m940
110 c0 -47 1 -50 19 -40 76 40 146 -41 126 -146 -12 -68 -79 -104 -135 -74
-13 7 -21 7 -25 0 -3 -5 -17 -10 -31 -10 l-24 0 0 160 0 160 35 0 35 0 0 -50z
m2980 -110 l0 -160 -30 0 c-21 0 -30 5 -30 17 0 15 -2 15 -19 -1 -13 -12 -32
-16 -57 -14 -73 6 -108 106 -66 188 20 41 68 60 107 42 25 -11 25 -11 25 38
l0 50 35 0 35 0 0 -160z m1860 0 l0 -160 -29 0 c-16 0 -31 5 -33 11 -3 9 -9 9
-25 0 -69 -36 -133 13 -133 102 0 92 54 145 122 119 l28 -10 0 49 0 49 35 0
35 0 0 -160z m-7386 108 c51 -138 86 -242 86 -254 0 -9 -12 -14 -34 -14 -29 0
-34 4 -42 33 -9 31 -11 32 -64 32 -52 0 -54 -1 -62 -32 -8 -29 -13 -33 -43
-33 -23 0 -35 5 -35 14 0 12 35 116 86 254 15 39 18 42 54 42 36 0 39 -3 54
-42z m4053 -108 c28 -80 52 -149 52 -153 1 -5 -16 -7 -36 -5 -33 3 -39 7 -47
36 -9 31 -11 32 -61 32 -50 0 -52 -1 -61 -32 -8 -29 -14 -33 -47 -36 -20 -2
-37 1 -37 5 0 12 88 261 101 285 8 15 19 18 47 16 l37 -3 52 -145z m3932 139
c29 -10 32 -15 26 -38 -9 -34 -8 -33 -39 -21 -71 27 -106 -3 -106 -88 0 -78
19 -97 90 -90 49 5 50 5 50 -22 0 -32 -14 -40 -76 -40 -63 0 -102 23 -125 73
-25 56 -24 103 4 157 34 69 101 95 176 69z m-1651 -26 c-3 -27 -6 -28 -56 -28
l-52 0 0 -32 c0 -33 0 -33 50 -33 49 0 50 -1 50 -30 0 -29 -1 -30 -50 -30
l-50 0 0 -60 0 -60 -35 0 -35 0 0 150 0 150 91 0 90 0 -3 -27z m-5707 -59 c21
-19 44 -89 34 -104 -3 -6 -37 -10 -76 -10 -71 0 -81 -7 -53 -34 18 -18 51 -20
88 -6 24 9 26 7 26 -19 0 -34 -14 -41 -82 -41 -44 0 -54 4 -85 35 -34 34 -35
38 -31 90 5 56 24 89 63 106 29 13 94 3 116 -17z m229 -9 c0 -32 -3 -35 -28
-35 -43 0 -52 -17 -52 -97 l0 -73 -35 0 -35 0 0 115 0 115 24 0 c14 0 28 -5
31 -10 4 -7 14 -5 28 5 12 8 32 15 44 15 20 0 23 -5 23 -35z m449 20 c38 -19
41 -31 41 -136 0 -88 0 -89 -25 -89 -13 0 -28 7 -33 16 -8 14 -10 14 -21 0
-20 -23 -86 -21 -111 4 -22 22 -26 60 -10 90 11 21 60 40 101 40 18 0 29 5 29
14 0 20 -24 26 -61 16 -18 -5 -33 -9 -34 -7 -1 1 -7 12 -14 24 -10 19 -8 23
17 31 40 15 89 14 121 -3z m510 1 c31 -17 51 -54 51 -96 l0 -30 -76 0 -76 0
15 -22 c15 -23 51 -29 102 -17 26 6 33 -30 9 -48 -29 -21 -117 -17 -147 8 -60
47 -57 161 6 199 38 24 78 25 116 6z m354 -5 c5 -5 5 -17 -2 -29 -9 -17 -18
-19 -58 -14 -55 5 -52 -2 15 -38 41 -22 47 -29 50 -62 5 -56 -23 -78 -97 -78
-61 0 -78 10 -77 45 1 13 7 19 16 16 96 -22 124 -4 50 34 -108 55 -78 153 44
140 27 -2 54 -9 59 -14z m214 -1 c64 -38 67 -152 6 -199 -39 -32 -104 -28
-144 7 -25 23 -32 38 -36 78 -9 106 85 169 174 114z m506 12 c3 -4 3 -19 0
-35 -4 -20 -11 -27 -28 -27 -42 0 -55 -25 -55 -101 l0 -69 -35 0 -35 0 0 115
0 115 30 0 c21 0 30 -5 30 -16 0 -13 5 -12 26 5 27 21 59 27 67 13z m187 -7
c36 -19 50 -43 50 -89 l0 -36 -70 0 c-53 0 -70 -3 -70 -14 0 -34 58 -45 113
-21 14 6 17 2 17 -23 0 -36 -13 -42 -87 -42 -47 0 -59 4 -84 29 -25 25 -29 37
-29 83 1 29 7 64 14 77 27 48 91 64 146 36z m383 -25 c23 -25 27 -39 27 -86 0
-48 -4 -59 -29 -85 -25 -24 -38 -29 -78 -29 -75 1 -113 41 -113 123 0 48 26
91 64 108 40 17 99 3 129 -31z m230 21 c5 -5 5 -17 -2 -29 -9 -16 -18 -19 -56
-15 -25 3 -45 3 -45 -1 0 -3 22 -17 49 -30 50 -26 61 -40 61 -81 0 -41 -36
-65 -99 -65 -31 0 -62 4 -69 9 -19 11 -11 57 8 52 8 -2 32 -6 53 -8 53 -8 49
17 -8 45 -54 26 -74 60 -57 97 7 14 22 30 34 35 26 11 117 5 131 -9z m628 -10
c26 -26 29 -36 29 -89 0 -50 -4 -66 -26 -91 -20 -24 -34 -31 -63 -31 -20 0
-42 5 -49 12 -9 9 -12 -2 -12 -51 l0 -62 -32 3 -33 3 -3 163 -2 162 29 0 c16
0 33 -5 36 -10 4 -7 14 -5 28 5 33 23 65 18 98 -14z m227 -3 c-2 -27 -8 -34
-30 -36 -39 -5 -47 -20 -50 -97 l-3 -70 -32 -3 -33 -3 0 115 c0 116 0 116 24
116 13 0 26 -5 28 -12 3 -8 11 -7 28 5 14 9 35 17 48 17 20 0 23 -4 20 -32z
m190 18 c69 -36 78 -157 15 -205 -40 -32 -104 -28 -145 8 -30 27 -33 34 -33
89 0 46 5 65 20 82 37 41 94 51 143 26z m491 -1 c35 -18 41 -38 41 -142 0 -81
0 -83 -25 -83 -13 0 -28 7 -33 16 -8 14 -10 14 -21 0 -20 -23 -86 -21 -111 4
-22 22 -26 60 -10 90 11 21 60 40 101 40 16 0 29 4 29 10 0 18 -33 28 -64 19
-25 -7 -34 -6 -43 8 -18 24 -16 30 15 41 40 15 89 14 121 -3z m518 -5 c63 -38
69 -146 12 -194 -64 -54 -156 -25 -180 55 -25 81 28 159 106 159 17 0 44 -9
62 -20z m245 2 c5 -5 7 -19 4 -30 -6 -17 -13 -19 -51 -14 -56 6 -59 -10 -6
-31 70 -28 89 -80 46 -122 -19 -20 -34 -25 -74 -25 -67 0 -81 7 -81 40 0 27 1
27 38 17 22 -6 48 -7 58 -3 19 8 18 8 -1 22 -11 8 -36 25 -55 37 -54 35 -52
94 5 118 25 11 103 5 117 -9z m566 -15 c47 -47 46 -143 -3 -184 -48 -42 -136
-27 -168 27 -37 61 -12 155 47 181 35 15 97 3 124 -24z m232 -2 c0 -32 -3 -35
-29 -35 -40 0 -50 -16 -53 -95 l-3 -70 -32 -3 -33 -3 0 115 0 116 24 0 c14 0
28 -5 31 -10 4 -7 14 -5 28 5 12 8 32 15 44 15 20 0 23 -5 23 -35z m189 20
c35 -18 41 -38 41 -142 0 -81 0 -83 -25 -83 -13 0 -28 7 -33 16 -8 14 -10 14
-21 0 -20 -23 -86 -21 -111 4 -22 22 -26 60 -10 90 11 21 60 40 101 40 16 0
29 4 29 10 0 18 -33 28 -64 19 -25 -7 -34 -6 -43 8 -18 24 -16 30 15 41 40 15
89 14 121 -3z m614 4 c36 -16 47 -50 47 -144 0 -84 0 -85 -25 -85 -13 0 -28 7
-33 16 -8 14 -10 14 -21 0 -20 -23 -86 -21 -111 4 -22 22 -26 60 -10 90 11 21
60 40 101 40 16 0 29 4 29 10 0 18 -33 28 -64 19 -25 -7 -34 -6 -43 8 -18 24
-16 30 15 41 37 14 86 14 115 1z m948 1 c22 0 28 -8 49 -72 l23 -73 24 73 c24
71 25 72 59 72 19 0 34 -2 34 -5 0 -2 -19 -54 -41 -115 l-42 -111 -35 3 c-35
3 -35 4 -77 113 -32 81 -44 103 -46 85 -3 -19 -11 -26 -31 -28 -39 -5 -47 -20
-50 -97 l-3 -70 -32 -3 -33 -3 0 115 c0 116 0 116 24 116 13 0 26 -5 28 -12 3
-8 12 -7 29 6 17 12 35 16 59 12 19 -3 46 -6 61 -6z m391 -20 c15 -18 18 -40
18 -116 0 -93 0 -94 -24 -94 -13 0 -26 5 -28 11 -3 9 -9 9 -25 0 -39 -20 -89
-14 -112 15 -26 34 -26 54 0 87 15 20 33 28 70 33 30 4 49 12 49 19 0 19 -19
23 -60 14 -35 -8 -50 0 -50 29 0 38 131 40 162 2z m-8639 -52 l24 -73 23 73
24 72 37 0 37 0 -43 -112 c-42 -112 -42 -113 -77 -116 l-35 -3 -41 108 c-23
59 -42 111 -42 116 0 4 15 7 34 7 34 0 35 -1 59 -72z m4613 -3 c13 -41 25 -64
28 -55 3 8 14 40 24 70 18 52 21 55 55 58 l37 3 -29 -78 c-56 -153 -56 -153
-93 -153 -33 0 -34 1 -72 103 -22 56 -41 108 -44 115 -3 10 5 13 34 10 38 -3
38 -3 60 -73z m3224 -4 c0 -87 13 -111 48 -92 27 14 32 32 32 107 l0 64 35 0
35 0 0 -115 0 -115 -30 0 c-21 0 -30 5 -30 17 0 15 -1 15 -18 0 -27 -25 -94
-22 -118 4 -15 17 -20 40 -22 115 l-4 94 36 0 36 0 0 -79z m940 -96 c6 -8 9
-23 5 -35 -5 -17 -13 -20 -38 -18 -32 3 -45 23 -33 54 7 18 50 18 66 -1z m119
-4 c14 -26 -8 -54 -39 -49 -25 3 -36 27 -26 54 8 20 53 17 65 -5z m116 -16 c0
-24 -5 -31 -24 -33 -32 -5 -54 23 -40 50 7 13 19 18 37 16 23 -2 27 -8 27 -33z"/>
<path d="M1390 511 c-15 -30 -12 -66 8 -91 16 -19 22 -21 40 -11 17 9 22 21
22 54 0 24 -5 48 -12 55 -18 18 -46 14 -58 -7z"/>
<path d="M1900 505 c-14 -38 -12 -60 8 -85 36 -44 80 12 63 79 -11 38 -57 42
-71 6z"/>
<path d="M2992 518 c-13 -13 -16 -65 -6 -92 10 -26 53 -20 66 9 24 54 -23 120
-60 83z"/>
<path d="M5820 511 c-28 -54 6 -124 49 -101 16 8 21 20 21 53 0 24 -5 48 -12
55 -18 18 -46 14 -58 -7z"/>
<path d="M7682 518 c-17 -17 -15 -84 4 -102 18 -19 20 -19 45 -6 14 8 19 21
19 53 0 45 -13 67 -40 67 -9 0 -21 -5 -28 -12z"/>
<path d="M373 560 c-6 -14 -13 -37 -17 -52 -6 -26 -4 -28 24 -28 34 0 34 0 16
60 -13 43 -14 44 -23 20z"/>
<path d="M4378 539 c-16 -57 -12 -65 30 -57 17 3 17 6 2 57 l-17 54 -15 -54z"/>
<path d="M964 523 c-17 -17 -16 -18 20 -21 46 -4 58 5 32 24 -25 18 -31 18
-52 -3z"/>
<path d="M1675 450 c-21 -4 -30 -11 -30 -25 0 -25 37 -32 54 -11 21 25 10 42
-24 36z"/>
<path d="M2172 528 c-20 -20 -14 -28 23 -28 19 0 35 4 35 8 0 12 -22 32 -35
32 -6 0 -16 -5 -23 -12z"/>
<path d="M2720 511 c-26 -50 9 -123 49 -101 24 13 35 59 22 93 -13 33 -55 37
-71 8z"/>
<path d="M3430 525 c-18 -21 -9 -27 36 -23 36 3 37 4 20 21 -21 21 -40 22 -56
2z"/>
<path d="M3782 518 c-17 -17 -15 -84 4 -102 18 -19 20 -19 45 -6 14 8 19 21
19 53 0 45 -13 67 -40 67 -9 0 -21 -5 -28 -12z"/>
<path d="M4639 503 c-6 -17 -7 -40 -2 -58 7 -25 14 -30 38 -30 27 0 30 4 33
34 6 56 -5 81 -33 81 -19 0 -28 -8 -36 -27z"/>
<path d="M5080 511 c-12 -23 -13 -71 -2 -87 12 -18 39 -23 57 -10 17 12 24 83
10 106 -11 17 -54 11 -65 -9z"/>
<path d="M5595 450 c-21 -4 -30 -11 -30 -25 0 -25 37 -32 54 -11 21 25 10 42
-24 36z"/>
<path d="M6080 505 c-15 -39 -12 -63 10 -85 39 -39 85 18 64 79 -14 38 -60 42
-74 6z"/>
<path d="M6882 518 c-13 -13 -16 -76 -4 -94 11 -17 35 -22 55 -12 12 6 17 21
17 51 0 45 -13 67 -40 67 -9 0 -21 -5 -28 -12z"/>
<path d="M7345 450 c-21 -4 -30 -11 -30 -25 0 -25 37 -32 54 -11 21 25 10 42
-24 36z"/>
<path d="M7965 450 c-21 -4 -30 -11 -30 -25 0 -25 37 -32 54 -11 21 25 10 42
-24 36z"/>
<path d="M9283 453 c-28 -6 -44 -25 -34 -42 6 -9 18 -11 35 -7 19 5 26 13 26
31 0 14 -1 24 -2 24 -2 -1 -13 -4 -25 -6z"/>
</g>
</svg>
